<?xml version="1.0" encoding="UTF-8" standalone="no"?>
<!-- Created with Inkscape (http://www.inkscape.org/) -->

<svg
   xmlns:dc="http://purl.org/dc/elements/1.1/"
   xmlns:cc="http://creativecommons.org/ns#"
   xmlns:rdf="http://www.w3.org/1999/02/22-rdf-syntax-ns#"
   xmlns:svg="http://www.w3.org/2000/svg"
   xmlns="http://www.w3.org/2000/svg"
   xmlns:sodipodi="http://sodipodi.sourceforge.net/DTD/sodipodi-0.dtd"
   xmlns:inkscape="http://www.inkscape.org/namespaces/inkscape"
   width="48pt"
   height="48pt"
   viewBox="0 0 16.933334 16.933333"
   version="1.1"
   id="svg979"
   inkscape:version="0.92.4 (5da689c313, 2019-01-14)"
   sodipodi:docname="24 - Salon.svg"
   inkscape:export-filename="E:\TR Design Studio Creative\Project Design\TR Creative Design\Icon Design\Project Hiring\Icon Icons\Project - 001\002 - Beauty And Fashion\Send\4 - Filled Line\24 - Salon.png"
   inkscape:export-xdpi="768"
   inkscape:export-ydpi="768">
  <defs
     id="defs973">
    <pattern
       y="0"
       x="0"
       height="6"
       width="6"
       patternUnits="userSpaceOnUse"
       id="EMFhbasepattern" />
    <pattern
       y="0"
       x="0"
       height="6"
       width="6"
       patternUnits="userSpaceOnUse"
       id="EMFhbasepattern-3" />
    <pattern
       y="0"
       x="0"
       height="6"
       width="6"
       patternUnits="userSpaceOnUse"
       id="EMFhbasepattern-8" />
  </defs>
  <sodipodi:namedview
     id="base"
     pagecolor="#ffffff"
     bordercolor="#666666"
     borderopacity="1.0"
     inkscape:pageopacity="0.0"
     inkscape:pageshadow="2"
     inkscape:zoom="8.546875"
     inkscape:cx="32"
     inkscape:cy="32"
     inkscape:document-units="pt"
     inkscape:current-layer="layer1"
     showgrid="false"
     units="pt"
     inkscape:window-width="1366"
     inkscape:window-height="716"
     inkscape:window-x="-8"
     inkscape:window-y="-8"
     inkscape:window-maximized="1"
     inkscape:snap-bbox="true"
     inkscape:bbox-nodes="true"
     inkscape:snap-nodes="false"
     showguides="false"
     inkscape:snap-global="true">
    <inkscape:grid
       type="xygrid"
       id="grid1526" />
    <sodipodi:guide
       position="0.97013909,15.963209"
       orientation="56.666615,0"
       id="guide1528"
       inkscape:locked="false" />
    <sodipodi:guide
       position="0.97013909,0.97016731"
       orientation="0,56.666667"
       id="guide1530"
       inkscape:locked="false" />
    <sodipodi:guide
       position="15.963195,0.97016731"
       orientation="-56.666615,0"
       id="guide1532"
       inkscape:locked="false" />
    <sodipodi:guide
       position="15.963195,15.963209"
       orientation="0,-56.666667"
       id="guide1534"
       inkscape:locked="false" />
  </sodipodi:namedview>
  <metadata
     id="metadata976">
    <rdf:RDF>
      <cc:Work
         rdf:about="">
        <dc:format>image/svg+xml</dc:format>
        <dc:type
           rdf:resource="http://purl.org/dc/dcmitype/StillImage" />
        <dc:title></dc:title>
      </cc:Work>
    </rdf:RDF>
  </metadata>
  <g
     inkscape:label="Layer 1"
     inkscape:groupmode="layer"
     id="layer1"
     transform="translate(0,-280.06668)">
    <g
       id="g1867"
       transform="matrix(1.2318924,0,0,1.2318924,-0.49514412,-70.398079)"
       style="stroke-width:0.81175923">
      <g
         id="g1831"
         style="stroke-width:0.81175923">
        <path
           id="path1693"
           d="m 11.751549,290.31815 c -0.35983,0 -0.338664,0.52916 0.02117,0.52916 h 0.126999 v 0.508 c 0,0.35983 0.529163,0.35983 0.529163,0 v -0.78316 c 0,-0.14817 -0.105833,-0.254 -0.253998,-0.254 h -0.402164 c 0,-0.0212 -0.02117,-0.0212 -0.02117,0 z"
           style="fill:#717171;fill-opacity:1;fill-rule:nonzero;stroke:none;stroke-width:0.21477798"
           inkscape:connector-curvature="0" />
        <path
           id="path1695"
           d="m 11.518718,291.10131 c -0.148166,0 -0.275165,0.127 -0.275165,0.254 v 0.80433 c 0,0.14816 0.126999,0.25399 0.275165,0.25399 h 0.253998 v 0.80433 c 0,0.14817 0.126999,0.254 0.275165,0.254 h 0.783161 c 0.148165,0 0.275164,-0.10583 0.275164,-0.254 v -1.86265 c 0,-0.127 -0.126999,-0.254 -0.275164,-0.254 z"
           style="fill:#e92567;fill-opacity:1;fill-rule:nonzero;stroke:none;stroke-width:0.21477798"
           inkscape:connector-curvature="0" />
        <path
           id="path1697"
           d="m 10.989555,291.88447 c -0.148165,0 -0.275165,0.127 -0.275165,0.27517 v 1.05832 c 0,0.14817 0.127,0.254 0.275165,0.254 h 1.058326 c 0.126999,0 0.253998,-0.10583 0.253998,-0.254 v -1.05832 c 0,-0.14817 -0.126999,-0.27517 -0.253998,-0.27517 z"
           style="fill:#ff7ca8;fill-opacity:1;fill-rule:nonzero;stroke:none;stroke-width:0.21477798"
           inkscape:connector-curvature="0" />
        <path
           id="path1699"
           d="m 4.1104393,285.28052 c -1.6086547,0 -2.9209783,1.31232 -2.9209783,2.89981 v 7.15428 c 0,0.14817 0.1269991,0.254 0.2539981,0.254 h 8.4877705 c 0.1269994,0.0212 0.2539984,-0.10583 0.2539984,-0.254 v -7.15428 c 0,-1.58749 -1.2911574,-2.89981 -2.8998122,-2.89981 z"
           style="fill:#b9dfff;fill-opacity:1;fill-rule:nonzero;stroke:none;stroke-width:0.21477798"
           inkscape:connector-curvature="0" />
        <path
           id="path1701"
           d="m 4.1104393,285.28052 c -1.6086547,0 -2.9209783,1.31232 -2.9209783,2.89981 v 1.05833 c 0,-1.58749 1.3123236,-2.89981 2.9209783,-2.89981 h 3.1749765 c 1.6086548,0 2.8998122,1.31232 2.8998122,2.89981 v -1.05833 c 0,-1.58749 -1.2911574,-2.89981 -2.8998122,-2.89981 z"
           style="fill:#89cdff;fill-opacity:1;fill-rule:nonzero;stroke:none;stroke-width:0.21477798"
           inkscape:connector-curvature="0" />
        <path
           id="path1703"
           d="m 2.7769493,285.59802 c -0.8678269,0.44449 -1.4816558,1.31232 -1.5663218,2.34948 l -0.021166,6.32879 c 0,0.14816 0.1269991,0.25399 0.2539981,0.25399 h 1.079492 c 0.1269991,0.0212 0.2539982,-0.10583 0.2539982,-0.25399 z"
           style="fill:#f2f2f2;fill-opacity:1;fill-rule:nonzero;stroke:none;stroke-width:0.21477798"
           inkscape:connector-curvature="0" />
        <path
           id="path1705"
           d="m 8.5977396,285.59802 v 8.67827 c 0,0.14816 0.126999,0.25399 0.2539979,0.25399 h 1.0794921 c 0.1269994,0.0212 0.2539984,-0.10583 0.2539984,-0.25399 v -6.09596 c 0,-1.12182 -0.6349955,-2.09548 -1.5874884,-2.58231 z"
           style="fill:#f2f2f2;fill-opacity:1;fill-rule:nonzero;stroke:none;stroke-width:0.21477798"
           inkscape:connector-curvature="0" />
        <path
           id="path1707"
           d="m 7.5182476,286.06368 c -0.2328318,0.0212 -0.3174977,0.29633 -0.169332,0.46566 l 0.5291627,0.52917 c 0.2539981,0.25399 0.6349952,-0.127 0.380997,-0.381 l -0.5291627,-0.52916 c -0.063499,-0.0635 -0.1481656,-0.0847 -0.211665,-0.0847 z"
           style="fill:#dbf6ff;fill-opacity:1;fill-rule:nonzero;stroke:none;stroke-width:0.21477798"
           inkscape:connector-curvature="0" />
        <path
           id="path1709"
           d="m 6.205924,286.33885 c -0.2328317,0 -0.3386643,0.29633 -0.1693323,0.44449 l 1.5874884,1.58749 c 0.2539982,0.27517 0.6349952,-0.127 0.3598307,-0.35983 l -1.5874884,-1.58749 c -0.042333,-0.0635 -0.1058325,-0.0847 -0.1904984,-0.0847 z"
           style="fill:#dbf6ff;fill-opacity:1;fill-rule:nonzero;stroke:none;stroke-width:0.21477798"
           inkscape:connector-curvature="0" />
        <path
           id="path1711"
           d="m 1.4434591,295.58861 c -0.126999,0.0212 -0.2539981,0.127 -0.2539981,0.27517 v 1.31232 c 0,0.14816 0.1269991,0.27516 0.2539981,0.27516 3.0903104,0 6.180621,0 9.2709309,0 0.148166,0 0.253999,-0.127 0.275165,-0.27516 v -1.31232 c -0.02117,-0.14817 -0.126999,-0.254 -0.275165,-0.27517 z"
           style="fill:#f8c55f;fill-opacity:1;fill-rule:nonzero;stroke:none;stroke-width:0.21477798"
           inkscape:connector-curvature="0" />
        <path
           id="path1713"
           d="m 8.5977396,285.59802 v 0.88899 c 0.6349953,0.52916 1.0583254,1.33349 1.0583254,2.22248 v 5.82079 h 0.2751646 c 0.1269994,0.0212 0.2539984,-0.10583 0.2539984,-0.25399 v -6.09596 c 0,-1.12182 -0.6349955,-2.09548 -1.5874884,-2.58231 z"
           style="fill:#d8d8d8;fill-opacity:1;fill-rule:nonzero;stroke:none;stroke-width:0.21477798"
           inkscape:connector-curvature="0" />
        <path
           id="path1715"
           d="m 7.8145788,294.00112 c -0.1481656,0 -0.2751648,0.127 -0.2751648,0.27517 v 1.58749 c 0,0.14816 0.1269992,0.27516 0.2751648,0.25399 H 10.71439 c 0.148166,0 0.275165,-0.10583 0.275165,-0.25399 v -1.58749 c 0,-0.14817 -0.126999,-0.27517 -0.275165,-0.27517 z"
           style="fill:#ffd180;fill-opacity:1;fill-rule:nonzero;stroke:none;stroke-width:0.21477798"
           inkscape:connector-curvature="0" />
        <path
           id="path1717"
           d="m 1.4434591,294.00112 c -0.126999,0 -0.2539981,0.127 -0.2539981,0.27517 v 1.84148 h 1.6509878 c 0.1481655,0.0212 0.2539981,-0.10583 0.2539981,-0.25399 v -1.58749 c 0,-0.14817 -0.1058326,-0.27517 -0.2539981,-0.27517 H 2.5229511 Z"
           style="fill:#ffd180;fill-opacity:1;fill-rule:nonzero;stroke:none;stroke-width:0.21477798"
           inkscape:connector-curvature="0" />
        <path
           id="path1719"
           d="m 7.8145788,294.00112 c -0.1481656,0 -0.2751648,0.127 -0.2751648,0.27517 v 0.25399 h 2.116651 c 0.1481657,0 0.2751646,0.127 0.2751646,0.27517 v 1.31232 H 10.71439 c 0.148166,0 0.275165,-0.10583 0.275165,-0.25399 v -1.58749 c 0,-0.14817 -0.126999,-0.27517 -0.275165,-0.27517 z"
           style="fill:#f5b545;fill-opacity:1;fill-rule:nonzero;stroke:none;stroke-width:0.21477798"
           inkscape:connector-curvature="0" />
        <path
           id="path1721"
           d="m 10.71439,292.9428 c -0.148165,0 -0.275164,0.127 -0.253998,0.27516 v 3.95814 c 0,0.14816 0.105833,0.27516 0.253998,0.27516 h 2.391816 c 0.126999,0 0.253998,-0.127 0.253998,-0.27516 v -3.95814 c 0,-0.14816 -0.126999,-0.27516 -0.253998,-0.27516 z"
           style="fill:#f2f2f2;fill-opacity:1;fill-rule:nonzero;stroke:none;stroke-width:0.21477798"
           inkscape:connector-curvature="0" />
        <path
           id="path1723"
           d="m 9.3597338,294.80545 c -0.3174976,0.0423 -0.2963309,0.52916 0.021167,0.52916 H 9.656065 c 0.380997,0.0212 0.380997,-0.57149 0,-0.52916 H 9.3809005 c 0,0 0,0 -0.021167,0 z"
           style="fill:#717171;fill-opacity:1;fill-rule:nonzero;stroke:none;stroke-width:0.21477798"
           inkscape:connector-curvature="0" />
        <path
           id="path1725"
           d="m 11.772716,294.93245 c -0.359831,0 -0.359831,0.52916 0,0.52916 h 0.275165 c 0.338664,0 0.338664,-0.52916 0,-0.52916 z"
           style="fill:#717171;fill-opacity:1;fill-rule:nonzero;stroke:none;stroke-width:0.21477798"
           inkscape:connector-curvature="0" />
        <path
           id="path1727"
           d="m 11.772716,295.86378 c -0.359831,0 -0.359831,0.52916 0,0.52916 h 0.275165 c 0.338664,0 0.338664,-0.52916 0,-0.52916 z"
           style="fill:#717171;fill-opacity:1;fill-rule:nonzero;stroke:none;stroke-width:0.21477798"
           inkscape:connector-curvature="0" />
        <path
           id="path1729"
           d="m 11.772716,294.00112 c -0.359831,0 -0.359831,0.52916 0,0.52916 h 0.275165 c 0.338664,0 0.338664,-0.52916 0,-0.52916 z"
           style="fill:#717171;fill-opacity:1;fill-rule:nonzero;stroke:none;stroke-width:0.21477798"
           inkscape:connector-curvature="0" />
        <path
           id="path1731"
           d="m 6.8026786,293.44062 c -0.1389718,0 -0.2580906,0.12263 -0.2580906,0.26569 v 2.1663 c 0,0.14306 0.1191188,0.26568 0.2580906,0.24524 h 0.9926566 c 0.1389719,0 0.2382374,-0.10218 0.2382374,-0.24524 v -1.53276 c 0,-0.49049 -0.3970627,-0.89923 -0.8735376,-0.89923 z"
           style="fill:#ff7ca8;fill-opacity:1;fill-rule:nonzero;stroke:none;stroke-width:0.21477798"
           inkscape:connector-curvature="0" />
        <path
           id="path1733"
           d="m 1.4434591,294.00112 c -0.126999,0 -0.2539981,0.127 -0.2539981,0.27517 v 0.25399 h 0.5503293 c 0.1481655,0 0.2751646,0.127 0.2751646,0.27517 v 1.31232 h 0.8254939 c 0.1481655,0.0212 0.2539981,-0.10583 0.2539981,-0.25399 v -1.58749 c 0,-0.14817 -0.1058326,-0.27517 -0.2539981,-0.27517 H 2.5229511 Z"
           style="fill:#f5b545;fill-opacity:1;fill-rule:nonzero;stroke:none;stroke-width:0.21477798"
           inkscape:connector-curvature="0" />
        <path
           id="path1735"
           d="m 3.1791129,293.47196 c -0.5079962,0 -0.9313264,0.42333 -0.9313264,0.93133 v 1.46049 c 0,0.14816 0.1269991,0.25399 0.2751646,0.25399 h 1.0583255 c 0.1269991,0.0212 0.2539982,-0.10583 0.2539982,-0.25399 v -2.11666 c 0,-0.14816 -0.1269991,-0.27516 -0.2539982,-0.27516 z"
           style="fill:#ff7ca8;fill-opacity:1;fill-rule:nonzero;stroke:none;stroke-width:0.21477798"
           inkscape:connector-curvature="0" />
        <path
           id="path1737"
           d="m 4.639602,295.58861 c -0.1481653,0.0212 -0.2751645,0.127 -0.2751645,0.27517 v 1.31232 c 0,0.14816 0.1269992,0.27516 0.2751645,0.27516 h 1.0583257 c 0.1269989,0 0.2539982,-0.127 0.2539982,-0.27516 v -1.31232 c 0,-0.14817 -0.1269993,-0.254 -0.2539982,-0.27517 z"
           style="fill:#f2f2f2;fill-opacity:1;fill-rule:nonzero;stroke:none;stroke-width:0.21477798"
           inkscape:connector-curvature="0" />
        <path
           id="path1739"
           d="m 3.1791129,293.49313 c -0.4021636,0 -0.7408278,0.23283 -0.8678269,0.59266 0.1058326,-0.0423 0.2116651,-0.0635 0.3386642,-0.0635 h 0.1904986 c 0.1481655,-0.0212 0.2539981,0.10583 0.2539981,0.254 v 1.86265 h 0.4868297 c 0.1269991,0 0.2539982,-0.127 0.2539982,-0.27516 v -2.11666 c 0,-0.14816 -0.1269991,-0.27516 -0.2539982,-0.25399 z"
           style="fill:#f55b8f;fill-opacity:1;fill-rule:nonzero;stroke:none;stroke-width:0.21477798"
           inkscape:connector-curvature="0" />
        <path
           id="path1741"
           d="m 4.639602,295.58861 c -0.1481653,0.0212 -0.2751645,0.127 -0.2751645,0.27517 v 0.76199 h 1.5874884 v -0.76199 c 0,-0.14817 -0.1269993,-0.254 -0.2539982,-0.27517 z"
           style="fill:#d8d8d8;fill-opacity:1;fill-rule:nonzero;stroke:none;stroke-width:0.21477798"
           inkscape:connector-curvature="0" />
        <path
           id="path1743"
           d="m 4.8936002,291.10131 c -0.8678267,0 -1.5874882,0.71966 -1.5874882,1.58749 v 3.17498 c 0,0.14816 0.1269991,0.25399 0.2751646,0.25399 h 3.1749765 c 0.1269992,0 0.2539982,-0.10583 0.2539982,-0.25399 v -3.17498 c 0,-0.86783 -0.7196614,-1.58749 -1.5874884,-1.58749 z"
           style="fill:#e92567;fill-opacity:1;fill-rule:nonzero;stroke:none;stroke-width:0.21477798"
           inkscape:connector-curvature="0" />
        <path
           id="path1745"
           d="m 3.7929417,296.9221 c -0.3598306,0 -0.3598306,0.52916 0,0.52916 h 2.7304799 c 0.3598307,0 0.3598307,-0.52916 0,-0.52916 z"
           style="fill:#717171;fill-opacity:1;fill-rule:nonzero;stroke:none;stroke-width:0.21477798"
           inkscape:connector-curvature="0" />
        <path
           id="path1747"
           d="m 6.8093185,293.4501 c -0.142547,0 -0.2647305,0.12219 -0.2647305,0.26474 v 0.24436 h 0.1221835 c 0.4887331,0 0.8960108,0.40728 0.8960108,0.89601 v 1.26256 h 0.2647308 c 0.1425472,0 0.2443666,-0.10182 0.2443666,-0.24436 v -1.52729 c 0,-0.48874 -0.4072779,-0.89602 -0.8960111,-0.89602 z"
           style="fill:#f55b8f;fill-opacity:1;fill-rule:nonzero;stroke:none;stroke-width:0.21477798"
           inkscape:connector-curvature="0" />
        <path
           id="path1749"
           d="m 4.8936002,291.10131 c -0.5714958,0 -1.079492,0.29633 -1.3546566,0.76199 0.2328316,-0.14816 0.5291627,-0.23283 0.8254939,-0.23283 h 0.5291627 c 0.867827,0 1.5874884,0.71966 1.5874884,1.58749 v 2.89981 h 0.2751645 c 0.1269992,0 0.2539982,-0.10583 0.2539982,-0.25399 v -3.17498 c 0,-0.86783 -0.7196614,-1.58749 -1.5874884,-1.58749 z"
           style="fill:#a10852;fill-opacity:1;fill-rule:nonzero;stroke:none;stroke-width:0.21477798"
           inkscape:connector-curvature="0" />
        <path
           id="path1751"
           d="m 11.518718,291.10131 c -0.148166,0 -0.275165,0.127 -0.275165,0.254 v 0.27516 h 1.058326 c 0.148165,0 0.275164,0.127 0.275164,0.254 v 1.58749 h 0.253999 c 0.148165,0 0.275164,-0.10583 0.275164,-0.254 v -1.86265 c 0,-0.127 -0.126999,-0.254 -0.275164,-0.254 z"
           style="fill:#a10852;fill-opacity:1;fill-rule:nonzero;stroke:none;stroke-width:0.21477798"
           inkscape:connector-curvature="0" />
        <path
           id="path1753"
           d="m 10.968389,291.88447 c -0.126999,0 -0.253999,0.127 -0.253999,0.27517 v 0.25399 h 0.783161 c 0.148166,0 0.275165,0.127 0.275165,0.27517 v 0.78316 h 0.253998 c 0.148166,0 0.275165,-0.10583 0.275165,-0.254 v -1.05832 c 0,-0.14817 -0.126999,-0.27517 -0.275165,-0.27517 z"
           style="fill:#f55b8f;fill-opacity:1;fill-rule:nonzero;stroke:none;stroke-width:0.21477798"
           inkscape:connector-curvature="0" />
        <path
           id="path1755"
           d="m 10.71439,292.9428 c -0.148165,0 -0.275164,0.127 -0.253998,0.27516 v 0.254 h 2.116651 c 0.127,0 0.253999,0.127 0.253999,0.27516 v 3.70414 h 0.275164 c 0.126999,0 0.253998,-0.127 0.253998,-0.27516 v -3.95814 c 0,-0.14816 -0.126999,-0.27516 -0.253998,-0.27516 z"
           style="fill:#d8d8d8;fill-opacity:1;fill-rule:nonzero;stroke:none;stroke-width:0.21477798"
           inkscape:connector-curvature="0" />
      </g>
      <path
         inkscape:connector-curvature="0"
         style="display:inline;fill:#1a1a1a;fill-opacity:1;fill-rule:nonzero;stroke:none;stroke-width:0.21477798"
         d="m 4.1104393,285.28052 c -1.6086547,0 -2.9209783,1.31232 -2.9209783,2.89981 0,3.00565 0,6.03246 0,9.01694 0,0.12699 0.1269991,0.25399 0.2539981,0.25399 H 13.106206 c 0.126999,0 0.253998,-0.127 0.253998,-0.25399 v -3.97931 c 0,-0.14816 -0.126999,-0.27516 -0.253998,-0.27516 v -1.58749 c 0,-0.127 -0.126999,-0.254 -0.275164,-0.254 h -0.402164 c 0,-0.1905 0,-0.381 0,-0.5715 0,-0.14816 -0.105833,-0.21166 -0.211665,-0.21166 h -0.444497 c 0,-0.0212 -0.02117,-0.0212 -0.02117,0 -0.35983,0 -0.338664,0.52916 0.02117,0.52916 h 0.126999 v 0.254 h -0.380997 c -0.148166,0 -0.275165,0.127 -0.275165,0.254 v 0.52916 h -0.253998 c -0.148165,0 -0.275165,0.127 -0.275165,0.27517 v 0.78316 c -0.148165,0 -0.275164,0.127 -0.253998,0.27516 v 0.78316 h -0.275164 v -5.82079 c 0,-1.58749 -1.2911574,-2.89981 -2.8998122,-2.89981 z m 0,0.52916 h 3.1749765 c 0.4868299,0 0.9313265,0.14817 1.3123238,0.40217 v 7.78927 H 8.0262439 C 7.8992447,293.64129 7.5605806,293.34496 7.1372502,293.34496 H 7.0102513 v -0.65616 c 0,-0.86783 -0.7196614,-1.58749 -1.5874884,-1.58749 H 4.8936002 c -0.8678267,0 -1.5874882,0.71966 -1.5874882,1.58749 v 0.78316 H 3.1791129 c -0.1481655,0 -0.2751646,0.0423 -0.4021636,0.10583 v -7.36594 c 0.3809971,-0.254 0.8254938,-0.40217 1.33349,-0.40217 z m 3.4289747,0.254 c 0,0 -0.021167,0 -0.021167,0 -0.2328317,0.0212 -0.3174976,0.29633 -0.169332,0.46566 l 0.5291627,0.52917 c 0.2539981,0.25399 0.6349952,-0.127 0.3809971,-0.381 l -0.5291625,-0.52916 c -0.042333,-0.0423 -0.1269992,-0.0847 -0.1904986,-0.0847 z m -1.33349,0.27517 c -0.2328317,0 -0.3386643,0.29633 -0.1693323,0.44449 l 1.5874884,1.58749 c 0.2539982,0.27517 0.6561617,-0.127 0.3598307,-0.35983 l -1.5874884,-1.58749 c -0.042333,-0.0635 -0.1058325,-0.0847 -0.1904984,-0.0847 z m -3.9581375,0.35983 v 7.30244 H 1.7186238 c 0,-1.92615 0,-3.87347 0,-5.82079 0,-0.57149 0.1904986,-1.07949 0.5291627,-1.48165 z m 6.8791158,0 c 0.3386641,0.40216 0.5291627,0.91016 0.5291627,1.48165 v 5.82079 H 9.1269023 Z m -4.2333021,4.93179 h 0.5291627 c 0.5926624,0 1.0583257,0.46567 1.0583257,1.05833 v 2.89981 H 3.8352748 v -2.89981 c 0,-0.59266 0.4656632,-1.05833 1.0583254,-1.05833 z m 6.8791158,0 h 0.804327 v 1.31233 h -0.275164 v -0.78316 c 0,-0.14817 -0.126999,-0.27517 -0.253998,-0.27517 h -0.275165 z m -0.529163,0.78316 c 0.169332,0 0.359831,0 0.529163,0 v 0.52917 h -0.529163 z m 1.587489,4.50847 h -1.841487 v -3.45014 h 1.841487 z m -5.8207907,-3.04798 h 0.1269989 c 0.2328318,0 0.4021638,0.16934 0.4021638,0.40217 v 1.31232 H 7.0102513 Z m -3.8311384,0.127 H 3.306112 v 1.58749 H 2.7769493 v -1.18532 c 0,-0.21167 0.169332,-0.40217 0.4021636,-0.40217 z m 8.5936031,0 c -0.359831,0 -0.359831,0.52916 0,0.52916 h 0.275165 c 0.338664,0 0.338664,-0.52916 0,-0.52916 z m -10.0540922,0.52916 h 0.5291627 v 1.05833 H 1.7186238 c 0,-0.33866 0,-0.69849 0,-1.05833 z m 6.3499529,0 c 0.8043275,0 1.5874883,0 2.3918153,0 v 1.05833 H 8.0685767 Z m 1.6086547,0.27517 c -0.084666,0 -0.211665,0 -0.3174976,0 -0.3174976,0 -0.3174976,0.52916 0.021167,0.52916 H 9.656065 c 0.380997,0 0.380997,-0.52916 0.021166,-0.52916 z m 2.0954846,0.127 c -0.359831,0 -0.359831,0.55033 0,0.52916 h 0.275165 c 0.35983,0.0212 0.35983,-0.52916 0,-0.52916 z m 0,0.93133 c -0.359831,0 -0.359831,0.52916 0,0.52916 h 0.275165 c 0.338664,0 0.338664,-0.52916 0,-0.52916 z m -10.0540922,0.25399 h 2.6458137 v 0.80433 H 1.7186238 Z m 3.1749764,0 h 0.5291627 v 0.80433 H 4.8936002 c 0,0 0,0 0,0 z m 1.0583257,0 c 1.5028222,0 3.0056444,0 4.5084661,0 v 0.80433 H 5.9519259 Z"
         id="path1757" />
    </g>
  </g>
</svg>
